<svg width="0" height="0" class="hidden">
  <symbol version="1.0" xmlns="http://www.w3.org/2000/svg" preserveAspectRatio="xMidYMid meet" viewBox="0 0 474.000000 452.000000" id="linkedin">
    <metadata>Created by potrace 1.16, written by Peter Selinger 2001-2019</metadata>
    <g transform="translate(0.000000,452.000000) scale(0.100000,-0.100000)" fill="currentColor" stroke="none">
      <path d="M420 4511 c0 -5 -15 -12 -34 -15 -63 -12 -173 -75 -233 -134 -59 -57
-133 -181 -133 -224 0 -11 -4 -16 -10 -13 -6 4 -10 -42 -10 -129 0 -75 4 -136
8 -136 4 0 14 -20 21 -45 43 -147 199 -287 366 -330 77 -20 260 -20 344 0 189
45 341 186 387 359 18 68 18 218 -1 289 -42 161 -175 304 -328 352 -29 9 -60
20 -69 26 -22 12 -308 12 -308 0z"></path>
      <path d="M3363 3105 c-148 -27 -291 -86 -411 -171 -82 -58 -204 -181 -257
-259 l-40 -57 -3 216 -2 216 -503 0 -502 0 -2 -1525 -3 -1525 505 0 504 0 4
923 c3 1006 1 956 62 1077 139 274 423 386 710 279 46 -17 76 -38 126 -88 72
-73 107 -136 142 -259 21 -76 22 -87 25 -1004 l3 -928 509 0 510 0 0 1010 c0
556 -4 1010 -8 1010 -4 0 -13 39 -20 88 -73 539 -428 923 -919 997 -119 18
-332 18 -430 0z"></path>
      <path d="M60 1525 l0 -1525 510 0 510 0 -2 1523 -3 1522 -507 3 -508 2 0
-1525z"></path>
    </g>
  </symbol>
  <symbol version="1.0" xmlns="http://www.w3.org/2000/svg" preserveAspectRatio="xMidYMid meet" viewBox="0 0 474.000000 474.000000" id="snapchat">
    <metadata>Created by potrace 1.16, written by Peter Selinger 2001-2019</metadata>
    <g transform="translate(0.000000,474.000000) scale(0.100000,-0.100000)" fill="currentColor" stroke="none">
      <path d="M2100 4732 c0 -5 -40 -14 -90 -20 -49 -7 -149 -27 -222 -46 -791
-200 -1429 -800 -1676 -1576 -36 -113 -78 -300 -88 -388 -4 -34 -11 -65 -15
-68 -11 -6 -12 -534 -1 -534 4 0 13 -40 20 -89 6 -50 27 -150 46 -224 174
-677 631 -1240 1251 -1542 225 -110 474 -188 687 -217 48 -7 88 -16 88 -20 0
-4 122 -8 270 -8 173 0 270 4 270 10 0 6 15 10 33 10 17 0 96 13 174 29 766
158 1413 692 1711 1411 75 181 145 439 159 586 3 35 10 64 14 64 5 0 9 117 9
260 0 143 -4 260 -8 260 -4 0 -13 42 -20 93 -6 51 -27 153 -45 227 -171 676
-625 1236 -1252 1546 -218 107 -518 200 -714 220 -34 4 -64 11 -67 15 -7 11
-534 12 -534 1z m515 -1051 c210 -54 387 -189 471 -360 52 -107 54 -122 54
-452 l0 -308 31 -16 c51 -27 117 -29 183 -6 75 27 116 27 150 0 70 -55 -2
-131 -169 -179 -36 -10 -81 -28 -99 -40 -36 -22 -66 -80 -66 -128 0 -157 213
-408 460 -540 41 -23 100 -50 131 -62 62 -22 95 -51 86 -74 -13 -34 -171 -88
-339 -116 -74 -13 -68 -6 -84 -110 -3 -25 -12 -59 -19 -77 l-13 -31 -74 20
c-99 27 -276 29 -333 4 -22 -9 -95 -53 -162 -97 -211 -138 -291 -164 -478
-156 -173 7 -220 26 -403 156 -135 95 -193 119 -310 127 -69 5 -105 2 -175
-15 -49 -12 -92 -19 -97 -16 -4 2 -10 28 -14 57 -11 87 -24 117 -54 124 -294
63 -426 125 -368 173 8 6 47 21 87 32 154 43 291 139 412 289 84 105 158 248
159 308 1 93 -29 121 -195 188 -133 54 -155 67 -163 98 -8 32 10 62 48 82 35
18 58 16 143 -16 59 -22 163 -25 182 -6 5 4 10 162 13 350 l5 343 44 88 c101
203 309 344 566 385 94 14 298 4 390 -19z"></path>
    </g>
  </symbol>
  <symbol version="1.0" xmlns="http://www.w3.org/2000/svg" preserveAspectRatio="xMidYMid meet" viewBox="0 0 474.000000 474.000000" id="pinterest">
    <metadata>Created by potrace 1.16, written by Peter Selinger 2001-2019</metadata>
    <g transform="translate(0.000000,474.000000) scale(0.100000,-0.100000)" fill="currentColor" stroke="none">
      <path d="M2265 3843 c-423 -54 -754 -270 -924 -603 -97 -189 -133 -369 -112
-558 29 -253 137 -441 305 -526 60 -30 98 -30 114 2 5 9 19 59 32 110 l22 92
-28 41 c-93 133 -116 202 -115 354 1 343 209 643 523 752 256 89 565 62 753
-67 126 -86 219 -227 251 -380 31 -146 7 -420 -53 -598 -97 -289 -266 -454
-468 -455 -192 -1 -312 148 -269 333 8 34 36 135 63 223 70 232 84 305 79 397
-7 119 -55 188 -152 220 -51 16 -141 8 -193 -18 -60 -31 -136 -120 -169 -199
-27 -65 -29 -75 -28 -218 0 -129 3 -158 22 -208 l21 -57 -49 -208 c-27 -114
-79 -333 -115 -487 -75 -320 -84 -375 -85 -536 0 -111 15 -304 26 -341 10 -33
34 -18 87 55 113 152 199 308 241 436 23 69 136 499 136 517 0 4 13 -11 29
-33 39 -54 138 -118 225 -146 98 -31 267 -30 378 1 296 84 516 310 626 646 56
167 75 289 75 471 0 129 -3 163 -25 246 -103 385 -427 665 -848 734 -86 13
-295 18 -375 8z"></path>
    </g>
  </symbol>
  <symbol version="1.0" xmlns="http://www.w3.org/2000/svg" preserveAspectRatio="xMidYMid meet" viewBox="0 0 474.000000 474.000000" id="facebook">
    <metadata>Created by potrace 1.16, written by Peter Selinger 2001-2019</metadata>
    <g transform="translate(0.000000,474.000000) scale(0.100000,-0.100000)" fill="currentColor" stroke="none">
      <path d="M985 3836 c-41 -18 -83 -69 -90 -109 -3 -18 -4 -640 -3 -1384 3
-1347 3 -1352 24 -1379 11 -15 33 -37 48 -48 27 -21 38 -21 767 -24 l739 -2 0
575 0 575 -190 0 -190 0 0 220 0 220 190 0 190 0 0 193 c0 105 5 221 10 257
22 144 92 275 185 351 55 44 168 95 239 108 66 12 275 14 404 4 l82 -6 0 -201
0 -201 -158 -1 c-143 0 -162 -2 -205 -23 -35 -17 -54 -35 -70 -65 -20 -38 -21
-55 -22 -226 l0 -185 220 -3 221 -2 -28 -213 c-15 -116 -27 -215 -28 -219 0
-4 -87 -9 -192 -10 l-193 -3 -3 -573 -2 -572 403 0 c404 0 404 0 438 23 18 12
44 38 56 56 l23 34 0 1359 c0 1502 5 1401 -66 1454 l-37 29 -1366 2 c-1120 2
-1371 0 -1396 -11z"></path>
    </g>
  </symbol>
  <symbol version="1.0" xmlns="http://www.w3.org/2000/svg" preserveAspectRatio="xMidYMid meet" viewBox="0 0 474.000000 474.000000" id="twitter">
    <metadata>Created by potrace 1.16, written by Peter Selinger 2001-2019</metadata>
    <g transform="translate(0.000000,474.000000) scale(0.100000,-0.100000)" fill="currentColor" stroke="none">
      <path d="M2780 3551 c-137 -37 -268 -131 -346 -249 -76 -114 -119 -300 -96
-419 l9 -53 -36 0 c-20 0 -90 9 -156 20 -376 61 -717 243 -978 521 l-85 89
-20 -42 c-119 -254 -49 -562 168 -735 l45 -35 -55 7 c-48 6 -148 36 -203 59
-41 19 -11 -150 49 -270 67 -135 192 -244 339 -297 68 -24 69 -25 40 -33 -16
-5 -76 -9 -132 -8 l-102 0 15 -35 c79 -192 249 -328 458 -369 l89 -18 -69 -46
c-205 -136 -420 -201 -671 -202 -79 -1 -143 -2 -143 -3 0 -5 162 -92 219 -117
106 -47 254 -94 373 -118 98 -20 143 -23 338 -23 194 0 241 3 338 23 231 47
446 136 636 264 133 90 341 303 435 443 197 296 310 653 311 981 0 89 0 91 31
113 87 65 270 263 255 278 -2 2 -21 -3 -42 -12 -51 -21 -220 -65 -251 -65 -22
0 -19 4 26 40 28 22 69 64 92 93 44 56 107 173 97 182 -3 3 -21 -3 -39 -14
-55 -32 -177 -80 -258 -101 l-74 -19 -51 45 c-60 53 -166 107 -251 129 -79 20
-223 18 -305 -4z"></path>
    </g>
  </symbol>
  <symbol version="1.0" xmlns="http://www.w3.org/2000/svg" preserveAspectRatio="xMidYMid meet" viewBox="0 0 474.000000 483.000000" id="instagram">
    <metadata>Created by potrace 1.16, written by Peter Selinger 2001-2019</metadata>
    <g transform="translate(0.000000,483.000000) scale(0.100000,-0.100000)" fill="currentColor" stroke="none">
      <path d="M1040 4820 c0 -5 -12 -10 -27 -10 -45 0 -179 -37 -271 -75 -298 -121
-531 -358 -651 -662 -33 -84 -71 -230 -71 -275 0 -16 -4 -28 -10 -28 -7 0 -10
-458 -10 -1355 0 -745 4 -1355 8 -1355 4 0 13 -35 19 -78 23 -153 101 -340
200 -480 108 -153 295 -308 464 -386 91 -42 220 -83 288 -92 28 -4 51 -10 51
-15 0 -12 2665 -12 2688 0 9 5 60 18 112 30 310 70 575 267 747 554 64 105
143 325 143 394 0 13 5 23 10 23 7 0 10 475 10 1405 0 930 -3 1405 -10 1405
-5 0 -10 8 -10 18 0 10 -10 56 -21 103 -108 427 -492 788 -918 861 -39 7 -71
16 -71 20 0 4 -601 8 -1335 8 -883 0 -1335 -3 -1335 -10z m2572 -397 c192 -55
354 -149 475 -276 123 -129 195 -254 250 -432 l28 -90 0 -1205 c0 -1132 -1
-1209 -18 -1270 -59 -213 -146 -362 -293 -500 -121 -114 -273 -199 -434 -242
l-85 -23 -1170 0 -1170 0 -90 28 c-351 110 -608 371 -698 710 l-22 82 0 1210
c0 1156 1 1213 19 1280 76 281 268 521 516 645 103 51 150 68 255 90 86 18
142 19 1225 17 1133 -2 1135 -2 1212 -24z"></path>
      <path d="M3560 4029 c-117 -23 -229 -118 -270 -227 -32 -83 -25 -215 14 -291
35 -68 102 -133 174 -168 49 -24 69 -27 147 -28 77 0 98 4 147 27 253 118 293
455 74 617 -87 64 -189 90 -286 70z"></path>
      <path d="M2135 3600 c-534 -116 -911 -537 -965 -1079 -49 -488 220 -966 670
-1191 167 -84 327 -120 532 -120 225 0 413 48 594 152 118 67 182 118 282 222
220 230 332 510 332 834 0 327 -121 616 -354 848 -163 162 -339 264 -556 321
-134 36 -401 42 -535 13z m453 -301 c523 -132 809 -709 610 -1229 -65 -169
-218 -350 -373 -442 -163 -96 -366 -141 -544 -120 -433 51 -763 400 -797 842
-12 165 27 351 107 498 143 267 381 430 694 476 58 8 226 -5 303 -25z"></path>
    </g>
  </symbol>
</svg>