<svg width="0" height="0" class="hidden">
  <symbol version="1.0" xmlns="http://www.w3.org/2000/svg" preserveAspectRatio="xMidYMid meet" viewBox="0 0 474.000000 474.000000" id="message">
    <metadata>Created by potrace 1.16, written by Peter Selinger 2001-2019</metadata>
    <g transform="translate(0.000000,474.000000) scale(0.100000,-0.100000)" fill="currentColor" stroke="none">
      <path d="M533 3590 c-13 -5 -23 -12 -23 -14 0 -3 118 -105 262 -228 144 -123
374 -319 512 -437 138 -117 292 -248 341 -290 402 -344 644 -549 665 -564 33
-23 127 -23 160 0 14 10 133 109 265 222 132 113 278 237 325 277 47 40 137
117 200 171 63 54 207 177 320 273 629 536 671 573 660 584 -14 14 -3653 20
-3687 6z"></path>
      <path d="M347 3413 c-9 -22 -12 -264 -12 -1043 l0 -1015 28 -57 c31 -64 88
-115 155 -141 39 -16 191 -17 1851 -17 2001 0 1851 -5 1937 65 25 21 54 59 71
93 l28 57 3 985 c3 970 0 1077 -29 1095 -5 3 -53 -31 -106 -77 -54 -46 -193
-164 -309 -263 -115 -99 -324 -277 -464 -395 -139 -118 -305 -260 -370 -315
-64 -55 -217 -185 -339 -290 -122 -104 -241 -200 -265 -213 -70 -37 -145 -48
-218 -33 -97 20 -88 13 -599 451 -119 102 -317 271 -440 375 -123 105 -255
217 -294 250 -322 276 -605 515 -610 515 -3 0 -11 -12 -18 -27z"></path>
    </g>
  </symbol>
  <symbol version="1.0" xmlns="http://www.w3.org/2000/svg" preserveAspectRatio="xMidYMid meet" viewBox="0 0 121.000000 121.000000" id="phone">
    <metadata>Created by potrace 1.16, written by Peter Selinger 2001-2019</metadata>
    <g transform="translate(0.000000,121.000000) scale(0.100000,-0.100000)" fill="currentColor" stroke="none">
      <path d="M169 1195 c-84 -27 -157 -140 -166 -259 -5 -53 0 -78 32 -172 67
-198 136 -304 301 -465 153 -147 265 -215 457 -274 113 -35 184 -32 273 13 61
31 124 90 124 117 0 8 5 15 10 15 6 0 10 26 10 58 l-1 57 -57 29 c-31 15 -94
50 -139 77 -45 27 -88 49 -96 49 -8 0 -48 -37 -90 -81 -58 -63 -80 -80 -94
-75 -61 23 -187 111 -258 181 -88 87 -185 231 -185 276 0 21 15 39 70 84 39
32 73 68 76 81 4 16 -5 41 -29 81 -19 32 -55 94 -80 138 -41 74 -47 80 -78 82
-19 1 -55 -4 -80 -12z"></path>
    </g>
  </symbol>
  <symbol version="1.0" xmlns="http://www.w3.org/2000/svg" preserveAspectRatio="xMidYMid meet" viewBox="0 0 474.000000 845.000000" id="localisation">
    <metadata>Created by potrace 1.16, written by Peter Selinger 2001-2019</metadata>
    <g transform="translate(0.000000,845.000000) scale(0.100000,-0.100000)" fill="currentColor" stroke="none">
      <path d="M2110 8442 c0 -4 -42 -13 -93 -20 -51 -6 -153 -27 -227 -45 -574
-145 -1063 -493 -1398 -992 -183 -273 -339 -687 -368 -977 -4 -37 -11 -65 -15
-62 -5 3 -9 -100 -9 -230 0 -129 3 -236 8 -238 4 -1 15 -50 25 -108 150 -900
946 -2892 2166 -5419 89 -183 161 -337 161 -342 0 -30 25 12 99 169 46 97 158
332 249 522 1134 2380 1854 4208 1999 5071 10 57 21 106 25 107 11 5 10 462
-1 462 -4 0 -11 30 -15 68 -4 37 -18 119 -32 182 -154 698 -620 1295 -1259
1610 -77 38 -185 86 -240 106 -122 45 -331 98 -445 114 -47 6 -93 16 -102 21
-22 11 -528 12 -528 1z m441 -1327 c662 -116 1047 -819 788 -1441 -123 -296
-389 -526 -707 -612 -86 -23 -115 -26 -262 -25 -146 0 -176 3 -264 26 -367 98
-650 380 -752 749 -32 116 -42 297 -25 419 66 444 413 804 854 884 98 18 267
18 368 0z"></path>
    </g>
  </symbol>
</svg>