<svg width="0" height="0" class="hidden">
  <symbol version="1.0" xmlns="http://www.w3.org/2000/svg" preserveAspectRatio="xMidYMid meet" viewBox="0 0 474.000000 376.000000" id="home">
    <metadata>Created by potrace 1.16, written by Peter Selinger 2001-2019</metadata>
    <g transform="translate(0.000000,376.000000) scale(0.100000,-0.100000)" fill="currentColor" stroke="none">
      <path d="M2270 3750 c0 -5 -6 -10 -13 -10 -32 0 -114 -60 -353 -260 -142 -118
-285 -237 -319 -265 -64 -52 -459 -381 -595 -495 -43 -36 -138 -115 -211 -176
-512 -424 -746 -619 -762 -635 -17 -18 -25 -99 -9 -99 4 0 42 -42 85 -93 122
-149 142 -167 185 -167 45 1 1 -33 582 450 445 370 1030 857 1254 1043 54 45
135 112 179 149 80 67 81 68 101 49 21 -18 176 -148 1191 -991 281 -233 561
-467 624 -519 180 -152 221 -181 256 -181 43 0 61 15 167 142 51 62 96 115
101 116 4 2 7 25 6 50 0 46 -1 48 -82 113 -198 161 -583 483 -589 493 -4 6 -8
287 -8 624 l0 612 -29 30 -28 30 -312 0 -312 0 -32 -30 -32 -30 -5 -304 -5
-304 -280 234 c-408 341 -470 391 -510 405 -19 7 -35 17 -35 21 0 4 -47 8
-105 8 -63 0 -105 -4 -105 -10z"></path>
      <path d="M2155 2824 c-269 -224 -361 -300 -925 -763 -256 -210 -484 -398 -508
-417 l-42 -35 0 -727 c0 -684 2 -729 19 -767 10 -23 33 -53 52 -68 19 -15 39
-32 46 -37 8 -6 232 -10 608 -10 l595 0 0 565 0 565 373 -2 372 -3 3 -562 2
-563 599 0 c330 0 601 4 603 8 2 4 18 18 36 31 18 12 41 40 52 61 19 38 20 62
20 777 l0 738 -117 95 c-64 52 -284 232 -488 400 -203 168 -408 337 -455 375
-47 38 -148 121 -225 185 -224 185 -403 330 -407 329 -2 0 -97 -79 -213 -175z"></path>
    </g>
  </symbol>
  <symbol version="1.0" xmlns="http://www.w3.org/2000/svg" preserveAspectRatio="xMidYMid meet" viewBox="0 0 474.000000 474.000000" id="oeil">
    <metadata>Created by potrace 1.16, written by Peter Selinger 2001-2019</metadata>
    <g transform="translate(0.000000,474.000000) scale(0.100000,-0.100000)" fill="currentColor" stroke="none">
      <path d="M2190 3844 c-19 -2 -80 -9 -135 -15 -100 -11 -281 -46 -385 -74 -325
-89 -668 -265 -940 -483 -120 -97 -326 -301 -414 -412 -77 -97 -218 -308 -260
-390 -16 -30 -35 -60 -42 -66 -16 -13 -19 -64 -4 -64 5 0 24 -28 41 -62 42
-85 182 -293 265 -398 92 -115 298 -319 414 -412 410 -325 860 -509 1380 -563
675 -71 1364 133 1900 563 120 96 325 301 414 412 84 105 223 314 265 398 17
34 36 62 41 62 17 0 11 50 -7 70 -10 10 -29 41 -42 67 -57 111 -192 308 -294
428 -83 97 -267 278 -357 351 -388 315 -842 510 -1340 574 -88 12 -438 21
-500 14z m-145 -576 c169 -43 307 -209 321 -388 25 -303 -256 -541 -549 -465
-83 21 -133 50 -198 112 -179 170 -180 457 -2 630 116 113 265 152 428 111z
m-799 -200 c-48 -167 -50 -181 -50 -373 -1 -200 9 -263 64 -412 194 -526 739
-845 1294 -757 252 40 472 152 648 331 48 49 105 113 128 143 64 85 155 281
187 400 26 97 28 119 28 290 0 183 -5 228 -42 343 -8 27 -13 51 -9 54 6 7 135
-80 231 -156 161 -127 351 -332 464 -498 l42 -63 -42 -62 c-223 -330 -551
-609 -907 -772 -673 -307 -1427 -262 -2057 124 -239 146 -512 409 -674 647
l-42 63 43 62 c164 238 370 444 608 606 41 28 79 52 84 52 4 0 5 -10 2 -22z"></path>
    </g>
  </symbol>
  <symbol version="1.0" xmlns="http://www.w3.org/2000/svg" preserveAspectRatio="xMidYMid meet" viewBox="0 0 474.000000 376.000000" id="send-message">
    <metadata>Created by potrace 1.16, written by Peter Selinger 2001-2019</metadata>
    <g transform="translate(0.000000,376.000000) scale(0.100000,-0.100000)" fill="currentColor" stroke="none">
      <path d="M4325 3466 c-115 -40 -340 -121 -500 -179 -390 -142 -982 -355 -2040
-735 -1122 -404 -1434 -519 -1535 -570 -72 -36 -75 -38 -78 -75 -2 -23 3 -48
12 -62 19 -28 470 -348 627 -443 l37 -22 113 58 c63 33 204 105 314 162 110
56 245 126 300 155 55 29 219 114 365 190 467 243 1472 770 1720 903 47 25 78
38 70 30 -8 -9 -130 -101 -270 -205 -140 -104 -563 -419 -940 -699 -377 -281
-784 -584 -905 -674 -121 -89 -242 -179 -268 -199 l-48 -36 3 -380 c2 -209 7
-388 12 -398 4 -9 19 -20 32 -23 27 -7 63 14 369 214 105 69 200 129 212 135
20 9 56 -13 291 -171 172 -115 283 -183 306 -187 72 -14 65 -24 481 660 163
270 327 540 364 600 38 61 215 353 396 650 180 297 344 567 365 600 21 33 59
96 86 140 26 44 117 194 201 334 84 140 153 262 153 272 0 13 -22 32 -33 28
-1 0 -96 -33 -212 -73z"></path>
    </g>
  </symbol>
  <symbol version="1.0" xmlns="http://www.w3.org/2000/svg" preserveAspectRatio="xMidYMid meet" viewBox="0 0 474.000000 474.000000" id="about">
    <metadata>Created by potrace 1.16, written by Peter Selinger 2001-2019</metadata>
    <g transform="translate(0.000000,474.000000) scale(0.100000,-0.100000)" fill="currentColor" stroke="none">
      <path d="M2120 4730 c0 -5 -10 -10 -22 -10 -47 0 -226 -52 -316 -92 -417 -183
-709 -540 -807 -988 -25 -115 -31 -354 -12 -475 71 -445 350 -831 745 -1029
90 -45 247 -99 362 -123 116 -24 380 -24 503 0 561 112 986 533 1096 1086 40
200 36 390 -14 596 -90 380 -356 715 -711 896 -109 55 -249 103 -354 121 -39
7 -70 16 -70 20 0 4 -90 8 -200 8 -127 0 -200 -4 -200 -10z"></path>
      <path d="M3495 1878 c-56 -36 -267 -139 -374 -183 -151 -61 -309 -110 -458
-142 -115 -24 -149 -27 -328 -27 -171 0 -215 3 -304 22 -244 54 -514 163 -737
298 -40 24 -77 44 -83 44 -27 0 -291 -171 -431 -279 -121 -93 -298 -273 -359
-363 -121 -182 -237 -443 -311 -699 -40 -142 -90 -366 -90 -408 0 -11 -4 -21
-10 -21 -6 0 -10 -27 -10 -60 l0 -60 2370 0 2370 0 0 60 c0 33 -4 60 -8 60 -4
0 -13 37 -20 83 -33 213 -133 543 -224 740 -137 296 -260 452 -518 657 -101
80 -305 220 -400 273 l-45 25 -30 -20z"></path>
    </g>
  </symbol>
</svg>