<svg width="0" height="0" class="hidden">
  <symbol version="1.0" xmlns="http://www.w3.org/2000/svg" preserveAspectRatio="xMidYMid meet" viewBox="0 0 474.000000 474.000000" id="fleche">
    <metadata>Created by potrace 1.16, written by Peter Selinger 2001-2019</metadata>
    <g transform="translate(0.000000,474.000000) scale(0.100000,-0.100000)" fill="currentColor" stroke="none">
      <path d="M2310 4731 c0 -5 -9 -12 -20 -16 -11 -3 -35 -23 -54 -43 -39 -41 -63
-79 -404 -622 -129 -206 -249 -397 -267 -425 -18 -27 -65 -103 -106 -168 -41
-65 -143 -227 -227 -360 -84 -133 -166 -264 -183 -292 -17 -27 -42 -69 -57
-93 -276 -437 -272 -431 -272 -500 0 -25 9 -43 34 -68 32 -32 38 -34 103 -34
37 0 177 18 311 40 133 22 268 40 300 40 151 0 257 -91 281 -241 7 -40 11
-361 11 -871 0 -803 0 -808 22 -865 27 -74 115 -165 176 -184 23 -7 42 -16 42
-21 0 -10 737 -11 742 0 2 4 29 20 61 36 71 35 130 100 157 172 19 53 20 75
20 862 0 515 4 830 11 872 24 150 129 240 277 240 37 0 175 -18 307 -40 330
-55 394 -53 430 14 28 52 16 113 -41 204 -120 194 -145 234 -214 342 -40 63
-99 158 -132 210 -32 52 -120 192 -195 310 -74 118 -262 418 -418 665 -500
798 -504 804 -554 820 -12 3 -21 11 -21 16 0 5 -27 9 -60 9 -33 0 -60 -4 -60
-9z"></path>
    </g>
  </symbol>
</svg>