<svg width="0" height="0" class="hidden">
  <symbol version="1.0" xmlns="http://www.w3.org/2000/svg" preserveAspectRatio="xMidYMid meet" viewBox="0 0 474.000000 416.000000" id="open-menu">
    <metadata>Created by potrace 1.16, written by Peter Selinger 2001-2019</metadata>
    <g transform="translate(0.000000,416.000000) scale(0.100000,-0.100000)" fill="currentColor" stroke="none">
      <path d="M461 3929 c-108 -21 -203 -95 -253 -197 -30 -60 -33 -75 -33 -157 0
-76 4 -98 26 -146 49 -105 133 -176 241 -205 79 -21 3777 -21 3856 0 70 19
129 55 181 111 69 75 86 123 86 240 0 89 -3 106 -28 157 -35 72 -119 149 -195
180 l-57 23 -1890 1 c-1039 1 -1910 -2 -1934 -7z"></path>
      <path d="M447 2459 c-97 -23 -191 -99 -240 -194 -29 -55 -32 -68 -32 -155 0
-82 4 -103 26 -150 33 -70 76 -119 138 -159 100 -65 -1 -62 2069 -59 l1877 3
57 23 c76 31 156 105 193 179 27 53 30 67 30 158 0 82 -4 109 -22 148 -33 70
-113 149 -186 183 l-62 29 -1905 2 c-1090 0 -1921 -3 -1943 -8z"></path>
      <path d="M411 980 c-92 -33 -165 -99 -208 -189 -24 -49 -27 -68 -28 -151 0
-85 3 -101 29 -154 37 -76 101 -140 174 -174 l57 -27 1935 0 1935 0 56 26 c79
37 133 90 171 167 30 61 33 74 33 162 0 88 -3 101 -33 162 -37 77 -90 128
-172 167 l-55 26 -1920 2 c-1875 2 -1921 2 -1974 -17z"></path>
    </g>
  </symbol>
  <symbol version="1.0" xmlns="http://www.w3.org/2000/svg" preserveAspectRatio="xMidYMid meet" viewBox="0 0 981.000000 980.000000" id="close-menu">
    <metadata>Created by potrace 1.16, written by Peter Selinger 2001-2019</metadata>
    <g transform="translate(0.000000,980.000000) scale(0.100000,-0.100000)" fill="currentColor" stroke="none">
      <path d="M8815 9790 c-130 -21 -246 -66 -356 -141 -32 -22 -787 -772 -1799
-1788 -959 -963 -1747 -1750 -1750 -1749 -3 2 -775 776 -1715 1722 -949 954
-1737 1737 -1770 1761 -82 58 -148 90 -252 121 -119 35 -297 38 -418 5 -236
-63 -416 -210 -525 -429 -134 -267 -102 -613 77 -850 22 -29 808 -825 1747
-1768 939 -944 1706 -1719 1704 -1724 -2 -4 -801 -811 -1777 -1791 -976 -981
-1794 -1811 -1819 -1844 -195 -261 -213 -623 -45 -910 61 -105 192 -235 293
-292 292 -164 638 -142 900 56 36 27 863 853 1839 1834 l1774 1785 1225 -1231
c674 -678 1467 -1474 1761 -1770 295 -296 563 -559 596 -584 163 -123 377
-181 579 -155 363 46 648 322 706 685 15 92 8 244 -16 332 -20 77 -81 206
-127 269 -20 27 -829 847 -1799 1823 -970 975 -1765 1778 -1767 1784 -2 6 423
440 945 963 2131 2136 2531 2541 2574 2605 58 87 97 176 121 279 17 72 20 110
17 217 -4 114 -9 142 -37 225 -42 124 -96 215 -185 307 -114 121 -236 193
-389 232 -93 24 -230 33 -312 21z"></path>
    </g>
  </symbol>
</svg>